<?xml version="1.0" standalone="no"?>
<!DOCTYPE svg PUBLIC "-//W3C//DTD SVG 1.1//EN" "http://www.w3.org/Graphics/SVG/1.1/DTD/svg11.dtd">
<svg xmlns="http://www.w3.org/2000/svg">
<defs >
<font id="PlusJakartaSans" horiz-adv-x="585" ><font-face
    font-family="Plus Jakarta Sans SemiBold"
    units-per-em="1000"
    panose-1="0 0 0 0 0 0 0 0 0 0"
    ascent="1038"
    descent="-222"
    alphabetic="0" />
<glyph unicode=" " horiz-adv-x="175" />
<glyph unicode="!" horiz-adv-x="341" d="M121 222L113 745H228L221 222H121ZM113 0V130H228V0H113Z" />
<glyph unicode="&quot;" horiz-adv-x="464" d="M107 484L92 745H197L182 484H107ZM282 484L266 745H371L357 484H282Z" />
<glyph unicode="#" horiz-adv-x="873" d="M125 0L175 174H55V274H203L260 472H140V572H289L339 745H454L404 572H584L633 745H748L699 572H819V472H670L613 274H733V174H584L535 0H420L469 174H290L240 0H125ZM318 274H498L555 472H375L318 274Z" />
<glyph unicode="$" horiz-adv-x="647" d="M338 -12Q268 -12 208 14T106 87T44 193L144 235Q171 166 223 129T343 92Q383 92 413 104T459 140T476 193Q476 234 453 258T385 296L245 340Q161 366 117 419T73 545Q73 608 104 655T189 730T314 757Q381 757 436 734T530
669T588 574L490 531Q468 590 422 622T314 654Q277 654 249 642T206 606T190 551Q190 515 213 487T283 445L413 404Q502 377 547 327T592 201Q592 139 560 91T470 16T338 -12ZM292 -100V845H372V-100H292Z" />
<glyph unicode="%" horiz-adv-x="1022" d="M148 0L754 745H880L274 0H148ZM262 367Q207 367 163 393T93 464T66 562Q66 616 92 660T163 731T262 757Q317 757 361 731T431 661T457 562Q457 508 431 464T361 394T262 367ZM262 458Q293 458 315 473T350 512T362 562Q362
589 350 612T316 651T262 666Q232 666 209 651T174 613T161 562Q161 536 173 512T209 473T262 458ZM761 -12Q706 -12 662 14T591 85T565 183Q565 237 591 281T661 352T761 378Q816 378 860 352T930 282T956 183Q956 129 930 85T860 15T761 -12ZM761 79Q792 79 814
94T848 133T861 183Q861 210 849 233T814 272T761 287Q731 287 708 272T673 234T660 183Q660 157 672 133T708 94T761 79Z" />
<glyph unicode="&amp;" horiz-adv-x="774" d="M293 -12Q227 -12 177 12T99 81T70 185Q70 235 88 272T133 336T187 381T232 409L293 443Q323 460 350 479T394 522T411 576Q411 612 387 636T327 661Q291 661 267 637T243 575Q243 549 255 524T285 478T320 437L720
0H579L236 369Q212 395 189 424T150 490T134 570Q134 627 160 669T230 734T326 757Q379 757 422 734T490 669T516 576Q516 522 491 483T431 417T364 371L303 335Q279 321 253 301T208 253T190 187Q190 140 219 114T297 88Q328 88 352 98T394 124T427 159T454 196L570
366H691L557 158Q541 134 519 105T466 49T393 5T293 -12Z" />
<glyph unicode="&apos;" horiz-adv-x="289" d="M107 484L92 745H197L182 484H107Z" />
<glyph unicode="(" horiz-adv-x="351" d="M225 -160Q143 -64 101 50T59 293Q59 423 101 537T225 745H320Q249 640 213 527T176 293Q176 174 212 60T320 -160H225Z" />
<glyph unicode=")" horiz-adv-x="351" d="M31 -160Q103 -55 139 59T175 293Q175 413 139 526T31 745H126Q209 651 251 537T293 293Q293 164 251 50T126 -160H31Z" />
<glyph unicode="*" horiz-adv-x="520" d="M182 371L109 424L186 528L67 568L95 654L214 614V745H305V614L424 654L452 568L333 528L411 424L338 371L260 475L182 371Z" />
<glyph unicode="+" horiz-adv-x="642" d="M272 0V201H71V301H272V500H372V301H571V201H372V0H272Z" />
<glyph unicode="," horiz-adv-x="328" d="M95 -147V-92Q128 -84 146 -62T168 0H115V130H230V45Q230 -35 196 -84T95 -147Z" />
<glyph unicode="-" horiz-adv-x="566" d="M83 221V321H483V221H83Z" />
<glyph unicode="." horiz-adv-x="347" d="M116 0V130H231V0H116Z" />
<glyph unicode="/" horiz-adv-x="481" d="M11 -120L345 705H470L136 -120H11Z" />
<glyph unicode="0" horiz-adv-x="716" d="M359 -12Q270 -12 203 36T99 171T61 373Q61 489 98 575T202 709T358 757Q447 757 513 709T617 575T655 373Q655 258 618 172T515 37T359 -12ZM359 96Q414 96 454 130T516 226T538 373Q538 458 516 520T454 616T358 650Q303
650 263 616T201 520T179 373Q179 289 201 227T263 130T359 96Z" />
<glyph unicode="1" horiz-adv-x="392" d="M176 0V645H33V745H293V0H176Z" />
<glyph unicode="2" horiz-adv-x="598" d="M50 0V85L254 303Q314 367 348 406T398 476T414 539Q414 593 381 622T296 652Q242 652 203 622T149 533L45 563Q57 622 93 665T181 733T295 757Q366 757 419 731T501 657T531 548Q531 507 516 469T468 388T386 292L206
100H545V0H50Z" />
<glyph unicode="3" horiz-adv-x="611" d="M293 -12Q233 -12 181 10T91 72T37 166L137 204Q157 151 198 122T293 93Q337 93 369 110T420 158T439 233Q439 276 421 307T370 354T293 370Q275 370 257 367T224 359L198 414L394 645H77V745H526V650L334 420L331 458Q398
457 449 429T528 351T557 236Q557 166 523 110T430 21T293 -12Z" />
<glyph unicode="4" horiz-adv-x="646" d="M394 0V168H39V266L389 745H506V266H609V168H506V0H394ZM126 223L107 266H394V651L426 641L126 223Z" />
<glyph unicode="5" horiz-adv-x="615" d="M299 -12Q240 -12 188 9T98 70T44 164L143 202Q162 149 205 121T299 93Q341 93 373 112T423 164T442 239Q442 282 424 314T373 365T299 384Q257 384 222 365T171 314L76 335L134 745H531V645H180L225 694L182 380L145
405Q175 447 218 466T316 485Q389 485 443 453T528 365T559 239Q559 168 525 111T433 21T299 -12Z" />
<glyph unicode="6" horiz-adv-x="601" d="M301 -12Q228 -12 171 20T82 108T49 235Q49 272 57 309T85 386T141 472L349 745H490L235 415L215 428Q229 444 245 453T280 466T320 470Q387 470 440 439T523 355T554 233Q554 163 521 108T432 20T301 -12ZM301 93Q340
93 370 111T418 160T436 232Q436 273 419 304T371 352T301 370Q263 370 233 353T184 304T166 232Q166 192 184 161T232 111T301 93Z" />
<glyph unicode="7" horiz-adv-x="554" d="M75 0L393 645H35V745H516V645L203 0H75Z" />
<glyph unicode="8" horiz-adv-x="631" d="M315 -12Q237 -12 179 18T88 100T56 215Q56 287 95 339T207 416L202 386Q149 406 119 453T88 558Q88 615 117 660T198 731T315 757Q381 757 432 732T512 661T542 558Q542 499 512 453T429 386L424 416Q496 391 536 339T576
215Q576 152 544 101T452 19T315 -12ZM315 88Q358 88 390 104T440 150T458 218Q458 257 440 286T390 331T315 347Q273 347 241 331T191 286T173 218Q173 179 191 150T241 105T315 88ZM315 447Q347 447 371 460T410 498T424 552Q424 583 410 606T372 643T315 657Q284
657 259 644T220 607T206 552Q206 522 220 498T259 461T315 447Z" />
<glyph unicode="9" horiz-adv-x="601" d="M111 0L366 330L386 317Q372 302 356 293T321 280T281 276Q214 276 161 306T78 390T47 512Q47 583 80 638T170 725T300 757Q374 757 430 725T519 638T552 511Q552 473 544 436T516 360T460 273L252 0H111ZM300 375Q339
375 369 393T417 442T435 513Q435 554 417 585T369 634T300 652Q262 652 232 635T183 586T165 513Q165 473 182 442T231 393T300 375Z" />
<glyph unicode=":" horiz-adv-x="347" d="M116 0V130H231V0H116ZM116 411V541H231V411H116Z" />
<glyph unicode=";" horiz-adv-x="367" d="M116 -147V-95Q149 -87 168 -63T191 0H136V130H251V45Q251 -35 217 -84T116 -147ZM136 411V541H251V411H136Z" />
<glyph unicode="&lt;" horiz-adv-x="642" d="M549 22L107 217V325L549 520V404L196 250V291L549 138V22Z" />
<glyph unicode="=" horiz-adv-x="642" d="M96 311V411H546V311H96ZM96 71V171H546V71H96Z" />
<glyph unicode="&gt;" horiz-adv-x="642" d="M93 22V138L446 291V250L93 404V520L536 325V217L93 22Z" />
<glyph unicode="?" horiz-adv-x="555" d="M196 222V239Q196 283 210 317T247 378T294 429Q328 461 354 491T381 561Q381 586 369 606T334 639T276 652Q229 652 196 624T153 547L48 572Q57 627 88 668T168 733T278 757Q347 757 396 730T472 658T498 563Q498 522
482 490T440 430T387 377Q355 346 331 313T306 234V222H196ZM196 0V130H311V0H196Z" />
<glyph unicode="@" horiz-adv-x="928" d="M484 -214Q392 -214 314 -183T178 -95T87 39T55 209Q55 301 87 378T178 512T314 600T483 631Q575 631 652 599T784 510T870 376T900 211Q900 147 879 100T819 26T727 0Q694 0 663 13T610 52T584 118L605 80Q594 55 571
37T517 10T454 0Q396 0 349 28T274 104T246 213Q246 274 273 323T348 401T456 431Q505 431 544 412T601 361L592 334V421H675V160Q675 124 689 106T730 88Q765 88 784 118T803 213Q803 283 781 343T718 447T617 516T484 541Q411 541 350 517T245 448T177 343T153
210Q153 138 177 77T245 -29T351 -99T484 -124Q531 -124 573 -113T652 -81L693 -159Q602 -214 484 -214ZM462 88Q498 88 525 105T568 151T584 216Q584 270 550 306T463 342Q428 343 400 327T356 282T340 216Q340 180 356 151T400 105T462 88Z" />
<glyph unicode="A" horiz-adv-x="692" d="M11 0L273 745H419L681 0H555L498 167H195L137 0H11ZM229 272H462L330 662H363L229 272Z" />
<glyph unicode="B" horiz-adv-x="692" d="M77 0V745H391Q461 745 512 721T590 651T617 543Q617 489 590 445T504 374V424Q555 404 587 374T633 305T648 225Q648 120 580 60T392 0H77ZM195 105H401Q460 105 495 137T530 224Q530 279 495 311T401 344H195V105ZM195
448H394Q442 448 471 475T500 548Q500 593 471 618T394 643H195V448Z" />
<glyph unicode="C" horiz-adv-x="777" d="M424 -12Q345 -12 278 17T161 97T83 219T55 373Q55 456 82 526T160 648T277 728T424 757Q503 757 565 730T671 660T733 565L627 515Q603 575 551 612T424 650Q350 650 293 615T205 518T173 373Q173 290 204 228T293 131T424
96Q498 96 550 133T627 230L733 180Q714 130 671 86T566 15T424 -12Z" />
<glyph unicode="D" horiz-adv-x="741" d="M77 0V745H321Q437 745 522 699T655 568T702 373Q702 263 655 179T523 47T321 0H77ZM195 105H323Q402 105 460 138T551 231T583 373Q583 455 551 514T460 607T323 640H195V105Z" />
<glyph unicode="E" horiz-adv-x="601" d="M77 0V745H568V640H195V426H548V321H195V105H568V0H77Z" />
<glyph unicode="F" horiz-adv-x="584" d="M77 0V745H562V640H195V416H522V311H195V0H77Z" />
<glyph unicode="G" horiz-adv-x="813" d="M426 -12Q347 -12 280 17T162 97T83 219T55 373Q55 456 82 526T160 648T277 728T424 757Q503 757 565 730T671 660T733 565L628 514Q605 575 552 612T424 650Q350 650 293 615T205 518T173 373Q173 290 205 228T295 131T426
96Q488 96 539 121T622 193T653 302V353L706 305H424V405H770V335Q770 253 742 189T666 79T556 11T426 -12Z" />
<glyph unicode="H" horiz-adv-x="734" d="M77 0V745H195V417H540V745H657V0H540V312H195V0H77Z" />
<glyph unicode="I" horiz-adv-x="272" d="M77 0V745H195V0H77Z" />
<glyph unicode="J" horiz-adv-x="390" d="M44 0V110H87Q137 110 167 139T197 219V745H314V223Q314 155 287 105T208 28T87 0H44Z" />
<glyph unicode="K" horiz-adv-x="671" d="M77 0V745H195V341L164 353L501 745H648L350 396L356 480L660 0H521L303 341L195 215V0H77Z" />
<glyph unicode="L" horiz-adv-x="539" d="M77 0V745H195V105H517V0H77Z" />
<glyph unicode="M" horiz-adv-x="874" d="M77 0V745H187L467 357H412L687 745H797V0H680V606L724 594L443 210H431L156 594L195 606V0H77Z" />
<glyph unicode="N" horiz-adv-x="739" d="M77 0V745H172L590 168L545 161V745H662V0H567L152 581L195 589V0H77Z" />
<glyph unicode="O" horiz-adv-x="878" d="M439 -12Q358 -12 289 17T167 98T85 220T55 373Q55 456 84 526T166 648T288 728T439 757Q521 757 590 729T712 648T794 526T823 373Q823 290 794 220T712 98T590 17T439 -12ZM439 96Q497 96 545 117T630 175T686 263T706
373Q706 432 686 482T630 570T546 629T439 650Q381 650 333 629T248 570T193 482T173 373Q173 314 192 264T248 176T333 117T439 96Z" />
<glyph unicode="P" horiz-adv-x="646" d="M77 0V745H348Q423 745 480 718T570 638T602 512Q602 440 570 388T480 308T348 280H195V0H77ZM195 385H351Q391 385 421 401T468 445T485 513Q485 552 468 580T421 624T351 640H195V385Z" />
<glyph unicode="Q" horiz-adv-x="878" d="M439 -12Q358 -12 289 17T167 98T85 220T55 373Q55 456 84 526T166 648T288 728T439 757Q521 757 590 729T712 648T794 526T823 373Q823 290 794 220T712 98T590 17T439 -12ZM439 96Q497 96 545 117T630 175T686 263T706
373Q706 432 686 482T630 570T546 629T439 650Q381 650 333 629T248 570T193 482T173 373Q173 314 192 264T248 176T333 117T439 96ZM626 -90L382 298H508L753 -90H626Z" />
<glyph unicode="R" horiz-adv-x="654" d="M77 0V745H348Q423 745 480 718T569 638T602 512Q602 435 564 380T460 300L632 0H498L315 325L392 280H195V0H77ZM195 385H350Q391 385 421 401T467 445T484 513Q484 552 468 580T421 624T350 640H195V385Z" />
<glyph unicode="S" horiz-adv-x="647" d="M338 -12Q268 -12 208 14T106 87T44 193L144 235Q171 166 223 129T343 92Q383 92 413 104T459 140T476 193Q476 234 453 258T385 296L245 340Q161 366 117 419T73 545Q73 608 104 655T189 730T314 757Q381 757 436 734T530
669T588 574L490 531Q468 590 422 622T314 654Q277 654 249 642T206 606T190 551Q190 515 213 487T283 445L413 404Q502 377 547 327T592 201Q592 139 560 91T470 16T338 -12Z" />
<glyph unicode="T" horiz-adv-x="532" d="M209 0V640H11V745H521V640H326V0H209Z" />
<glyph unicode="U" horiz-adv-x="712" d="M356 -12Q273 -12 209 23T108 119T71 258V745H189V263Q189 214 210 176T269 117T356 96Q406 96 443 117T502 176T524 263V745H641V258Q641 180 605 119T505 23T356 -12Z" />
<glyph unicode="V" horiz-adv-x="682" d="M275 0L11 745H138L354 109H329L544 745H671L407 0H275Z" />
<glyph unicode="W" horiz-adv-x="1008" d="M216 0L11 745H136L302 100H271L443 745H566L738 100H706L873 745H997L793 0H660L487 635H522L348 0H216Z" />
<glyph unicode="X" horiz-adv-x="640" d="M11 0L254 377L15 745H149L349 437H292L490 745H624L386 377L629 0H495L292 316L349 315L144 0H11Z" />
<glyph unicode="Y" horiz-adv-x="648" d="M266 0V336L11 745H144L348 414H301L504 745H637L383 336V0H266Z" />
<glyph unicode="Z" horiz-adv-x="576" d="M17 0V90L399 640H39V745H550V656L168 105H559V0H17Z" />
<glyph unicode="[" horiz-adv-x="382" d="M99 -160V745H339V645H214V-60H339V-160H99Z" />
<glyph unicode="\" horiz-adv-x="481" d="M345 -120L11 705H136L470 -120H345Z" />
<glyph unicode="]" horiz-adv-x="382" d="M43 -160V-60H168V645H43V745H283V-160H43Z" />
<glyph unicode="^" horiz-adv-x="642" d="M98 422L268 745H375L545 422H420L299 656H346L224 422H98Z" />
<glyph unicode="_" horiz-adv-x="641" d="M83 -100V0H558V-100H83Z" />
<glyph unicode="`" horiz-adv-x="372" d="M225 640L116 805H264L337 640H225Z" />
<glyph unicode="a" horiz-adv-x="578" d="M228 -12Q173 -12 132 7T67 61T44 143Q44 187 63 222T124 281T227 315L415 346V257L249 228Q204 220 183 200T162 147Q162 116 185 97T246 77Q292 77 326 97T380 150T399 225V364Q399 404 370 429T291 455Q246 455 213
432T163 371L69 418Q84 458 118 488T197 536T294 553Q358 553 407 529T484 463T512 364V0H404V98L427 95Q408 62 379 38T312 1T228 -12Z" />
<glyph unicode="b" horiz-adv-x="670" d="M355 -12Q292 -12 241 14T161 89L174 110V0H66V757H179V429L161 455Q191 501 241 527T355 553Q432 553 493 516T590 415T626 271Q626 191 591 127T494 26T355 -12ZM344 93Q392 93 429 116T487 179T509 271Q509 322 488
362T429 425T344 448Q297 448 260 425T201 362T179 271Q179 220 200 180T259 116T344 93Z" />
<glyph unicode="c" horiz-adv-x="606" d="M323 -12Q242 -12 180 25T81 127T44 272Q44 352 80 416T179 516T323 553Q378 553 426 534T509 480T562 401L463 355Q446 397 409 422T323 448Q277 448 241 426T183 363T162 271Q162 220 183 180T240 116T323 93Q372 93
408 118T463 187L562 140Q546 97 511 63T427 8T323 -12Z" />
<glyph unicode="d" horiz-adv-x="670" d="M316 -12Q238 -12 177 25T80 127T44 271Q44 351 80 415T177 516T315 553Q380 553 430 527T509 455L492 429V757H604V0H497V110L510 89Q482 40 430 14T316 -12ZM327 93Q374 93 411 116T470 179T492 271Q492 322 471 362T412
425T327 448Q280 448 242 425T183 362T162 271Q162 220 183 180T241 116T327 93Z" />
<glyph unicode="e" horiz-adv-x="613" d="M320 -12Q239 -12 177 25T79 127T44 272Q44 354 79 417T175 516T311 553Q372 553 420 532T501 475T551 391T569 291Q569 278 568 264T564 238H133V328H500L446 287Q456 336 440 374T390 435T311 458Q266 458 231 436T177
372T162 271Q157 216 177 175T235 111T321 88Q370 88 404 110T459 167L551 122Q535 84 502 54T422 6T320 -12Z" />
<glyph unicode="f" horiz-adv-x="402" d="M127 0V439H27V541H127V569Q127 630 152 671T221 735T324 757Q335 757 349 756T372 752V654Q364 656 354 656T338 657Q293 657 266 637T239 569V541H363V439H239V0H127Z" />
<glyph unicode="g" horiz-adv-x="655" d="M327 -220Q268 -220 218 -201T132 -149T78 -70L182 -27Q196 -65 233 -90T326 -115Q369 -115 403 -99T457 -51T477 25V147L497 124Q469 72 420 45T308 18Q233 18 173 53T79 149T44 286Q44 363 78 423T172 518T307 553Q369
553 417 527T497 450L482 422V541H589V25Q589 -45 556 -100T463 -188T327 -220ZM321 123Q366 123 401 144T456 202T477 285Q477 331 456 368T400 426T321 448Q275 448 239 427T183 369T162 285Q162 240 182 203T239 145T321 123Z" />
<glyph unicode="h" horiz-adv-x="586" d="M66 0V757H179V435L161 449Q181 500 225 526T327 553Q387 553 433 527T505 455T531 350V0H419V319Q419 360 404 388T361 432T299 448Q265 448 238 433T195 388T179 319V0H66Z" />
<glyph unicode="i" horiz-adv-x="245" d="M66 0V541H179V0H66ZM66 615V745H179V615H66Z" />
<glyph unicode="j" horiz-adv-x="245" d="M-17 -221Q-28 -221 -41 -220T-64 -216V-118Q-45 -121 -26 -121Q16 -121 41 -100T66 -35V541H179V-35Q179 -94 154 -136T85 -199T-17 -221ZM66 615V745H179V615H66Z" />
<glyph unicode="k" horiz-adv-x="567" d="M66 0V757H179V250L135 261L406 541H547L343 324L556 0H426L236 287L303 296L143 126L179 201V0H66Z" />
<glyph unicode="l" horiz-adv-x="245" d="M66 0V757H179V0H66Z" />
<glyph unicode="m" horiz-adv-x="919" d="M66 0V541H174V424L160 442Q177 497 222 525T325 553Q390 553 440 519T508 427L476 424Q500 489 549 521T663 553Q719 553 764 527T837 455T864 350V0H751V319Q751 360 737 388T697 432T637 448Q603 448 577 433T536 388T521
319V0H409V319Q409 360 395 388T355 432T294 448Q260 448 234 433T194 388T179 319V0H66Z" />
<glyph unicode="n" horiz-adv-x="586" d="M66 0V541H174V435L161 449Q181 500 225 526T327 553Q387 553 433 527T505 455T531 349V0H419V319Q419 360 404 388T362 432T299 448Q264 448 237 433T194 388T179 319V0H66Z" />
<glyph unicode="o" horiz-adv-x="653" d="M327 -12Q249 -12 185 25T82 126T44 271Q44 353 82 416T184 516T327 553Q407 553 470 517T571 417T609 271Q609 189 571 125T469 25T327 -12ZM327 93Q375 93 412 116T470 179T492 271Q492 322 471 362T412 425T327 448Q280
448 243 425T184 362T162 271Q162 220 183 180T242 116T327 93Z" />
<glyph unicode="p" horiz-adv-x="670" d="M66 -200V541H174V429L161 455Q191 501 241 527T355 553Q432 553 493 516T590 415T626 271Q626 191 591 127T494 26T355 -12Q292 -12 241 14T161 89L179 110V-200H66ZM344 93Q392 93 429 116T487 179T509 271Q509 322
488 362T429 425T344 448Q297 448 260 425T201 362T179 271Q179 220 200 180T259 116T344 93Z" />
<glyph unicode="q" horiz-adv-x="670" d="M492 -200V110L510 89Q482 40 430 14T316 -12Q238 -12 177 25T80 127T44 271Q44 351 80 415T177 516T315 553Q380 553 430 527T509 455L497 429V541H604V-200H492ZM327 93Q374 93 411 116T470 179T492 271Q492 322 471
362T412 425T327 448Q280 448 242 425T183 362T162 271Q162 220 183 180T241 116T327 93Z" />
<glyph unicode="r" horiz-adv-x="362" d="M66 0V541H174V432L164 448Q182 501 222 524T318 548H351V445H304Q248 445 214 411T179 312V0H66Z" />
<glyph unicode="s" horiz-adv-x="512" d="M266 -12Q183 -12 121 29T33 139L120 180Q142 134 180 107T266 80Q306 80 331 98T356 147Q356 167 345 179T318 200T284 212L199 236Q129 256 95 296T60 391Q60 440 85 476T154 533T253 553Q327 553 385 517T467 415L380
374Q364 413 330 436T252 459Q215 459 193 442T171 396Q171 377 181 365T207 345T240 332L328 306Q395 287 431 247T467 150Q467 102 442 66T371 9T266 -12Z" />
<glyph unicode="t" horiz-adv-x="405" d="M300 -6Q215 -6 168 42T121 177V439H26V541H41Q79 541 100 563T121 623V665H234V541H357V439H234V182Q234 154 243 135T272 105T324 94Q332 94 342 95T361 97V0Q347 -2 330 -4T300 -6Z" />
<glyph unicode="u" horiz-adv-x="586" d="M259 -12Q198 -12 152 15T81 92T55 207V541H168V217Q168 180 183 152T225 109T287 93Q323 93 350 109T392 154T408 222V541H520V0H413V106L425 92Q406 42 362 15T259 -12Z" />
<glyph unicode="v" horiz-adv-x="550" d="M223 0L11 541H134L297 100H252L415 541H539L326 0H223Z" />
<glyph unicode="w" horiz-adv-x="855" d="M197 0L11 541H131L273 110H231L376 541H479L623 110H581L724 541H844L657 0H555L409 441H446L300 0H197Z" />
<glyph unicode="x" horiz-adv-x="535" d="M12 0L201 271L12 541H145L300 315H236L391 541H524L334 271L523 0H390L237 227H299L145 0H12Z" />
<glyph unicode="y" horiz-adv-x="569" d="M114 -221Q94 -221 75 -218T39 -207V-110Q51 -113 68 -115T101 -118Q148 -118 170 -98T211 -34L247 48L245 -47L11 541H132L305 90H264L436 541H558L319 -59Q300 -107 272 -143T205 -200T114 -221Z" />
<glyph unicode="z" horiz-adv-x="471" d="M17 0V93L335 478L353 439H32V541H453V449L139 63L121 103H454V0H17Z" />
<glyph unicode="{" horiz-adv-x="371" d="M286 -160Q209 -160 165 -119T120 -6V176Q120 205 106 222T64 239H34V339H64Q92 339 106 356T120 403V591Q120 663 164 704T286 745H328V645H286Q262 645 249 630T235 589V412Q236 374 222 343T180 290Q207 272 221 241T235
174V-4Q235 -29 248 -44T286 -60H328V-160H286Z" />
<glyph unicode="|" horiz-adv-x="363" d="M124 -190V845H239V-190H124Z" />
<glyph unicode="}" horiz-adv-x="371" d="M43 -160V-60H85Q109 -60 123 -45T136 -4V174Q136 210 150 241T192 290Q164 311 150 342T136 412V589Q137 615 123 630T85 645H43V745H85Q163 745 207 704T251 591V403Q251 374 265 357T307 339H337V239H307Q280 239 266
222T251 176V-6Q251 -77 207 -118T85 -160H43Z" />
<glyph unicode="~" horiz-adv-x="642" d="M419 200Q385 200 362 210T319 233T282 257T242 267Q216 267 200 251T179 204H86Q91 283 128 323T229 364Q262 364 286 354T328 331T365 307T405 297Q428 297 443 311T464 360H557Q552 282 517 241T419 200Z" />
<glyph unicode="&#xa0;" horiz-adv-x="175" />
<glyph unicode="&#xa1;" horiz-adv-x="341" d="M113 -204L121 319H221L228 -204H113ZM113 411V541H228V411H113Z" />
<glyph unicode="&#xa2;" horiz-adv-x="606" d="M323 91Q242 91 180 128T81 229T44 374Q44 455 80 518T179 619T323 656Q378 656 426 637T509 583T562 503L463 458Q446 500 409 525T323 551Q277 551 241 528T183 465T162 373Q162 322 183 282T240 219T323 196Q372
196 408 221T463 290L562 243Q546 199 511 165T427 111T323 91ZM279 0V745H359V0H279Z" />
<glyph unicode="&#xa3;" horiz-adv-x="657" d="M39 0V100H139V523Q139 593 168 645T253 727T383 757Q443 757 493 734T577 669T618 569L514 539Q507 594 471 623T383 652Q323 652 290 618T256 523V100H585V0H39ZM39 340V418H435V340H39Z" />
<glyph unicode="&#xa4;" horiz-adv-x="592" d="M111 17L44 84L122 162Q107 185 99 212T91 269Q91 298 99 325T122 376L44 454L111 521L189 443Q213 458 240 466T296 475Q325 475 352 467T404 443L481 521L548 454L471 376Q485 353 493 326T502 269Q502 239 494
212T471 162L548 84L481 17L404 95Q381 80 354 72T296 64Q268 64 241 71T189 95L111 17ZM296 167Q325 167 348 180T385 217T399 269Q399 298 385 321T348 358T296 372Q268 372 245 358T207 321T193 269Q193 241 207 218T244 181T296 167Z" />
<glyph unicode="&#xa5;" horiz-adv-x="648" d="M266 0V336L11 745H144L348 414H301L504 745H637L383 336V0H266ZM126 295V373H522V295H126ZM126 148V225H522V148H126Z" />
<glyph unicode="&#xa6;" horiz-adv-x="363" d="M124 428V845H239V428H124ZM124 -190V228H239V-190H124Z" />
<glyph unicode="&#xa7;" horiz-adv-x="532" d="M277 -100Q190 -100 125 -57T33 59L121 100Q145 51 186 23T277 -6Q320 -6 347 14T375 67Q375 88 364 102T334 125T297 139L208 164Q134 186 98 228T61 326Q61 377 87 415T160 474T263 496L262 431Q221 431 198 408T174
347Q174 322 185 305T216 277T257 259L341 234Q411 214 449 172T487 70Q487 20 461 -18T387 -78T277 -100ZM277 161V225Q320 225 347 248T375 313Q375 338 364 355T332 384T288 402L208 425Q134 447 98 489T61 587Q61 638 87 676T160 735T263 757Q339 757 400 719T487
612L398 571Q381 613 344 637T262 662Q221 662 198 643T174 593Q174 572 185 558T213 536T248 523L341 495Q411 475 449 433T487 331Q487 281 461 243T387 183T277 161Z" />
<glyph unicode="&#xa8;" horiz-adv-x="502" d="M116 640V765H241V640H116ZM321 640V765H446V640H321Z" />
<glyph unicode="&#xa9;" horiz-adv-x="924" d="M463 -12Q383 -12 313 18T190 101T107 224T77 374Q77 453 106 522T189 645T312 727T463 757Q542 757 611 728T734 645T817 523T847 374Q847 293 817 224T734 101T612 18T463 -12ZM463 73Q525 73 579 96T675 160T739
256T762 374Q762 436 739 490T675 585T579 649T463 673Q400 673 345 650T249 586T185 491T162 374Q162 311 185 256T249 160T345 96T463 73ZM468 163Q409 163 363 190T289 265T262 373Q262 434 289 481T362 555T468 582Q512 582 547 568T608 529T643 473L562 440Q552
465 528 483T468 501Q416 501 384 466T352 373Q352 316 384 280T468 244Q502 244 526 261T562 306L643 272Q633 242 608 217T548 178T468 163Z" />
<glyph unicode="&#xaa;" horiz-adv-x="449" d="M176 357Q116 357 80 387T44 467Q44 515 77 546T176 589L300 609V537L194 519Q168 514 156 503T143 470Q143 452 157 441T193 429Q221 429 242 441T276 474T288 520V619Q288 643 270 659T220 675Q191 675 169 659T136
618L59 655Q76 701 122 728T224 755Q294 755 338 717T383 619V366H294V430L315 431Q292 395 258 376T176 357Z" />
<glyph unicode="&#xab;" horiz-adv-x="629" d="M193 74L40 269L193 464H319L167 269L319 74H193ZM463 74L310 269L463 464H589L437 269L589 74H463Z" />
<glyph unicode="&#xac;" horiz-adv-x="642" d="M471 40V201H71V301H571V40H471Z" />
<glyph unicode="&#xad;" horiz-adv-x="566" d="M83 221V321H483V221H83Z" />
<glyph unicode="&#xae;" horiz-adv-x="667" d="M334 272Q263 272 205 306T112 399T77 528Q77 599 111 657T204 750T334 784Q387 784 433 765T515 710T570 628T590 528Q590 458 556 400T463 307T334 272ZM334 338Q387 338 429 363T498 432T524 528Q524 581 498
624T429 693T334 719Q280 719 237 693T169 624T143 528Q143 475 168 432T237 364T334 338ZM229 393V664H345Q388 664 416 642T444 575Q444 545 431 526T395 495L454 393H380L328 486H298V393H229ZM298 545H346Q360 545 368 554T376 575Q376 588 368 596T346 605H298V545Z"
/>
<glyph unicode="&#xaf;" horiz-adv-x="450" d="M116 660V755H421V660H116Z" />
<glyph unicode="&#xb0;" horiz-adv-x="517" d="M259 429Q212 429 175 450T116 509T94 593Q94 639 116 676T175 735T259 757Q305 757 342 735T402 676T424 593Q424 547 402 510T343 451T259 429ZM258 510Q293 510 317 533T342 592Q342 629 317 652T258 676Q223
676 199 653T175 592Q175 557 199 534T258 510Z" />
<glyph unicode="&#xb1;" horiz-adv-x="642" d="M272 170V326H71V426H272V580H372V426H571V326H372V170H272ZM71 0V100H571V0H71Z" />
<glyph unicode="&#xb2;" horiz-adv-x="416" d="M29 224V298L170 447Q209 487 232 513T265 558T275 597Q275 629 255 647T203 666Q170 666 146 648T111 593L25 619Q34 661 60 691T124 738T203 754Q254 754 292 736T351 684T373 608Q373 561 348 521T278 435L156
307H380V224H29Z" />
<glyph unicode="&#xb3;" horiz-adv-x="429" d="M206 216Q163 216 125 232T60 277T23 344L108 375Q121 341 146 323T206 304Q247 304 272 327T297 391Q297 430 273 452T206 475Q175 475 151 464L129 511L264 663H53V746H373V668L238 512L239 548Q286 547 321 528T375
474T395 393Q395 343 371 303T303 239T206 216Z" />
<glyph unicode="&#xb4;" horiz-adv-x="372" d="M116 640L189 805H337L228 640H116Z" />
<glyph unicode="&#xb5;" horiz-adv-x="586" d="M55 -140V541H168V217Q168 180 183 152T225 109T287 93Q323 93 350 109T392 154T408 222V541H520V0H413V118L426 99Q409 45 365 17T259 -12Q224 -12 194 -2T139 27L168 64V-140H55Z" />
<glyph unicode="&#xb6;" horiz-adv-x="509" d="M267 -100V348Q208 348 163 373T91 444T65 546Q65 604 91 649T162 719T267 745H385V-100H267Z" />
<glyph unicode="&#xb7;" horiz-adv-x="347" d="M116 206V336H231V206H116Z" />
<glyph unicode="&#xb8;" horiz-adv-x="382" d="M227 -235Q199 -235 168 -226T116 -200L142 -132Q157 -144 175 -150T212 -157Q234 -157 246 -147T259 -120Q259 -100 236 -88T163 -71L185 10H255L244 -33Q297 -41 325 -66T354 -129Q354 -176 319 -205T227 -235Z" />
<glyph unicode="&#xb9;" horiz-adv-x="311" d="M118 224V662H18V746H216V224H118Z" />
<glyph unicode="&#xba;" horiz-adv-x="492" d="M247 357Q191 357 145 383T72 453T44 556Q44 614 71 659T145 729T247 755Q303 755 348 730T421 659T448 556Q448 498 421 454T348 383T247 357ZM247 444Q277 444 300 458T336 498T350 556Q350 589 337 614T300 654T247
669Q217 669 193 654T156 614T143 556Q143 524 156 499T193 459T247 444Z" />
<glyph unicode="&#xbb;" horiz-adv-x="629" d="M310 74L462 269L310 464H437L590 269L437 74H310ZM40 74L192 269L40 464H167L320 269L167 74H40Z" />
<glyph unicode="&#xbc;" horiz-adv-x="884" d="M99 328V672H18V745H185V328H99ZM114 0L560 745H650L204 0H114ZM705 0V90H519V163L699 417H790V162H855V90H790V0H705ZM581 132L566 162H705V351L727 344L581 132Z" />
<glyph unicode="&#xbd;" horiz-adv-x="834" d="M99 328V672H18V745H185V328H99ZM114 0L560 745H650L204 0H114ZM515 0V66L628 183Q658 214 675 234T700 268T708 297Q708 319 693 332T655 346Q633 346 615 333T588 293L512 317Q519 350 540 374T592 411T655 424Q717
424 755 392T794 307Q794 268 773 237T721 172L626 73H799V0H515Z" />
<glyph unicode="&#xbe;" horiz-adv-x="963" d="M171 321Q119 321 77 350T23 426L98 452Q108 427 127 414T171 400Q201 400 219 417T238 463Q238 492 221 508T171 525Q159 525 147 523T124 515L105 556L211 673H48V745H308V677L199 555L201 589Q257 588 290 554T324
465Q324 425 304 392T250 340T171 321ZM193 0L639 745H729L283 0H193ZM784 0V90H598V163L778 417H869V162H934V90H869V0H784ZM660 132L645 162H784V351L806 344L660 132Z" />
<glyph unicode="&#xbf;" horiz-adv-x="555" d="M278 -216Q209 -216 160 -188T84 -116T57 -22Q57 20 74 52T116 111T168 164Q200 195 224 229T249 308V319H359V303Q359 258 345 224T308 164T261 113Q229 80 202 51T175 -20Q175 -44 187 -65T222 -98T280 -111Q327
-111 360 -82T402 -5L507 -30Q499 -85 468 -127T388 -192T278 -216ZM245 411V541H360V411H245Z" />
<glyph unicode="&#xc0;" horiz-adv-x="692" d="M11 0L273 745H419L681 0H555L498 167H195L137 0H11ZM229 272H462L330 662H363L229 272ZM291 844L182 1009H330L403 844H291Z" />
<glyph unicode="&#xc1;" horiz-adv-x="692" d="M11 0L273 745H419L681 0H555L498 167H195L137 0H11ZM229 272H462L330 662H363L229 272ZM290 844L363 1009H511L402 844H290Z" />
<glyph unicode="&#xc2;" horiz-adv-x="692" d="M11 0L273 745H419L681 0H555L498 167H195L137 0H11ZM229 272H462L330 662H363L229 272ZM162 844L280 1004H412L531 844H415L346 935L278 844H162Z" />
<glyph unicode="&#xc3;" horiz-adv-x="692" d="M11 0L273 745H419L681 0H555L498 167H195L137 0H11ZM229 272H462L330 662H363L229 272ZM415 844Q388 844 371 853T341 873T316 893T286 902Q269 902 260 889T251 848H162Q162 922 195 957T277 993Q305 993 322 985T353
965T378 945T407 936Q426 936 434 950T443 989H531Q531 919 498 882T415 844Z" />
<glyph unicode="&#xc4;" horiz-adv-x="692" d="M11 0L273 745H419L681 0H555L498 167H195L137 0H11ZM229 272H462L330 662H363L229 272ZM181 844V969H306V844H181ZM386 844V969H511V844H386Z" />
<glyph unicode="&#xc5;" horiz-adv-x="692" d="M11 0L273 745H419L681 0H555L498 167H195L137 0H11ZM229 272H462L330 662H363L229 272ZM346 809Q296 809 261 841T226 926Q226 978 261 1010T346 1042Q396 1042 431 1010T466 926Q466 874 431 842T346 809ZM346
880Q366 880 378 892T391 926Q391 946 379 959T346 972Q327 972 314 960T301 926Q301 905 314 893T346 880Z" />
<glyph unicode="&#xc6;" horiz-adv-x="989" d="M11 0L273 745H956V640H583V426H936V321H583V105H956V0H466V167H195L137 0H11ZM229 272H466V640H356L229 272Z" />
<glyph unicode="&#xc7;" horiz-adv-x="777" d="M424 -12Q345 -12 278 17T161 97T83 219T55 373Q55 456 82 526T160 648T277 728T424 757Q503 757 565 730T671 660T733 565L627 515Q603 575 551 612T424 650Q350 650 293 615T205 518T173 373Q173 290 204 228T293
131T424 96Q498 96 550 133T627 230L733 180Q714 130 671 86T566 15T424 -12ZM436 -235Q408 -235 377 -226T325 -200L351 -132Q366 -144 384 -150T421 -157Q443 -157 455 -147T468 -120Q468 -100 445 -88T372 -71L394 10H464L453 -33Q506 -41 534 -66T563 -129Q563
-176 528 -205T436 -235Z" />
<glyph unicode="&#xc8;" horiz-adv-x="601" d="M77 0V745H568V640H195V426H548V321H195V105H568V0H77ZM267 844L158 1009H306L379 844H267Z" />
<glyph unicode="&#xc9;" horiz-adv-x="601" d="M77 0V745H568V640H195V426H548V321H195V105H568V0H77ZM267 844L340 1009H488L379 844H267Z" />
<glyph unicode="&#xca;" horiz-adv-x="601" d="M77 0V745H568V640H195V426H548V321H195V105H568V0H77ZM139 844L257 1004H389L508 844H392L323 935L255 844H139Z" />
<glyph unicode="&#xcb;" horiz-adv-x="601" d="M77 0V745H568V640H195V426H548V321H195V105H568V0H77ZM158 844V969H283V844H158ZM363 844V969H488V844H363Z" />
<glyph unicode="&#xcc;" horiz-adv-x="272" d="M77 0V745H195V0H77ZM81 844L-28 1009H120L193 844H81Z" />
<glyph unicode="&#xcd;" horiz-adv-x="272" d="M77 0V745H195V0H77ZM80 844L153 1009H301L192 844H80Z" />
<glyph unicode="&#xce;" horiz-adv-x="272" d="M77 0V745H195V0H77ZM-48 844L70 1004H202L321 844H205L136 935L68 844H-48Z" />
<glyph unicode="&#xcf;" horiz-adv-x="272" d="M77 0V745H195V0H77ZM-29 844V969H96V844H-29ZM176 844V969H301V844H176Z" />
<glyph unicode="&#xd0;" horiz-adv-x="741" d="M20 323V423H353V323H20ZM77 0V745H321Q437 745 522 699T655 568T702 373Q702 263 655 179T523 47T321 0H77ZM195 105H323Q402 105 460 138T551 231T583 373Q583 455 551 514T460 607T323 640H195V105Z" />
<glyph unicode="&#xd1;" horiz-adv-x="739" d="M77 0V745H172L590 168L545 161V745H662V0H567L152 581L195 589V0H77ZM438 844Q411 844 394 853T364 873T339 893T309 902Q292 902 283 889T274 848H185Q185 922 218 957T300 993Q328 993 345 985T376 965T401 945T430
936Q449 936 457 950T466 989H554Q554 919 521 882T438 844Z" />
<glyph unicode="&#xd2;" horiz-adv-x="878" d="M439 -12Q358 -12 289 17T167 98T85 220T55 373Q55 456 84 526T166 648T288 728T439 757Q521 757 590 729T712 648T794 526T823 373Q823 290 794 220T712 98T590 17T439 -12ZM439 96Q497 96 545 117T630 175T686
263T706 373Q706 432 686 482T630 570T546 629T439 650Q381 650 333 629T248 570T193 482T173 373Q173 314 192 264T248 176T333 117T439 96ZM384 844L275 1009H423L496 844H384Z" />
<glyph unicode="&#xd3;" horiz-adv-x="878" d="M439 -12Q358 -12 289 17T167 98T85 220T55 373Q55 456 84 526T166 648T288 728T439 757Q521 757 590 729T712 648T794 526T823 373Q823 290 794 220T712 98T590 17T439 -12ZM439 96Q497 96 545 117T630 175T686
263T706 373Q706 432 686 482T630 570T546 629T439 650Q381 650 333 629T248 570T193 482T173 373Q173 314 192 264T248 176T333 117T439 96ZM383 844L456 1009H604L495 844H383Z" />
<glyph unicode="&#xd4;" horiz-adv-x="878" d="M439 -12Q358 -12 289 17T167 98T85 220T55 373Q55 456 84 526T166 648T288 728T439 757Q521 757 590 729T712 648T794 526T823 373Q823 290 794 220T712 98T590 17T439 -12ZM439 96Q497 96 545 117T630 175T686
263T706 373Q706 432 686 482T630 570T546 629T439 650Q381 650 333 629T248 570T193 482T173 373Q173 314 192 264T248 176T333 117T439 96ZM255 844L373 1004H505L624 844H508L439 935L371 844H255Z" />
<glyph unicode="&#xd5;" horiz-adv-x="878" d="M439 -12Q358 -12 289 17T167 98T85 220T55 373Q55 456 84 526T166 648T288 728T439 757Q521 757 590 729T712 648T794 526T823 373Q823 290 794 220T712 98T590 17T439 -12ZM439 96Q497 96 545 117T630 175T686
263T706 373Q706 432 686 482T630 570T546 629T439 650Q381 650 333 629T248 570T193 482T173 373Q173 314 192 264T248 176T333 117T439 96ZM508 844Q481 844 464 853T434 873T409 893T379 902Q362 902 353 889T344 848H255Q255 922 288 957T370 993Q398 993 415
985T446 965T471 945T500 936Q519 936 527 950T536 989H624Q624 919 591 882T508 844Z" />
<glyph unicode="&#xd6;" horiz-adv-x="878" d="M439 -12Q358 -12 289 17T167 98T85 220T55 373Q55 456 84 526T166 648T288 728T439 757Q521 757 590 729T712 648T794 526T823 373Q823 290 794 220T712 98T590 17T439 -12ZM439 96Q497 96 545 117T630 175T686
263T706 373Q706 432 686 482T630 570T546 629T439 650Q381 650 333 629T248 570T193 482T173 373Q173 314 192 264T248 176T333 117T439 96ZM274 844V969H399V844H274ZM479 844V969H604V844H479Z" />
<glyph unicode="&#xd7;" horiz-adv-x="642" d="M165 0L95 71L251 227L95 382L166 453L321 298L476 453L547 382L392 227L548 71L477 0L321 156L165 0Z" />
<glyph unicode="&#xd8;" horiz-adv-x="878" d="M66 0L676 745H812L202 0H66ZM439 -12Q358 -12 289 17T167 98T85 220T55 373Q55 456 84 526T166 648T288 728T439 757Q521 757 590 729T712 648T794 526T823 373Q823 290 794 220T712 98T590 17T439 -12ZM439 96Q497
96 545 117T630 175T686 263T706 373Q706 432 686 482T630 570T546 629T439 650Q381 650 333 629T248 570T193 482T173 373Q173 314 192 264T248 176T333 117T439 96Z" />
<glyph unicode="&#xd9;" horiz-adv-x="712" d="M356 -12Q273 -12 209 23T108 119T71 258V745H189V263Q189 214 210 176T269 117T356 96Q406 96 443 117T502 176T524 263V745H641V258Q641 180 605 119T505 23T356 -12ZM301 844L192 1009H340L413 844H301Z" />
<glyph unicode="&#xda;" horiz-adv-x="712" d="M356 -12Q273 -12 209 23T108 119T71 258V745H189V263Q189 214 210 176T269 117T356 96Q406 96 443 117T502 176T524 263V745H641V258Q641 180 605 119T505 23T356 -12ZM300 844L373 1009H521L412 844H300Z" />
<glyph unicode="&#xdb;" horiz-adv-x="712" d="M356 -12Q273 -12 209 23T108 119T71 258V745H189V263Q189 214 210 176T269 117T356 96Q406 96 443 117T502 176T524 263V745H641V258Q641 180 605 119T505 23T356 -12ZM172 844L290 1004H422L541 844H425L356 935L288
844H172Z" />
<glyph unicode="&#xdc;" horiz-adv-x="712" d="M356 -12Q273 -12 209 23T108 119T71 258V745H189V263Q189 214 210 176T269 117T356 96Q406 96 443 117T502 176T524 263V745H641V258Q641 180 605 119T505 23T356 -12ZM191 844V969H316V844H191ZM396 844V969H521V844H396Z" />
<glyph unicode="&#xdd;" horiz-adv-x="648" d="M266 0V336L11 745H144L348 414H301L504 745H637L383 336V0H266ZM268 844L341 1009H489L380 844H268Z" />
<glyph unicode="&#xde;" horiz-adv-x="645" d="M70 0V745H188V605H341Q416 605 473 578T563 498T595 372Q595 300 563 248T473 168T341 140H188V0H70ZM188 245H344Q384 245 414 261T461 305T478 373Q478 412 461 440T414 484T344 500H188V245Z" />
<glyph unicode="&#xdf;" horiz-adv-x="629" d="M77 -155V515Q77 590 109 644T196 728T322 757Q392 757 444 732T525 660T554 553Q554 495 524 449T439 385L433 416Q512 389 548 343T585 224Q585 156 555 106T470 28T339 0H275V100H334Q394 100 430 134T467 224Q467
279 431 312T334 345H275V445H326Q359 445 383 459T422 497T437 552Q437 583 423 606T382 643T321 657Q283 657 253 640T207 592T190 515V-155H77Z" />
<glyph unicode="&#xe0;" horiz-adv-x="578" d="M228 -12Q173 -12 132 7T67 61T44 143Q44 187 63 222T124 281T227 315L415 346V257L249 228Q204 220 183 200T162 147Q162 116 185 97T246 77Q292 77 326 97T380 150T399 225V364Q399 404 370 429T291 455Q246 455
213 432T163 371L69 418Q84 458 118 488T197 536T294 553Q358 553 407 529T484 463T512 364V0H404V98L427 95Q408 62 379 38T312 1T228 -12ZM239 640L130 805H278L351 640H239Z" />
<glyph unicode="&#xe1;" horiz-adv-x="578" d="M228 -12Q173 -12 132 7T67 61T44 143Q44 187 63 222T124 281T227 315L415 346V257L249 228Q204 220 183 200T162 147Q162 116 185 97T246 77Q292 77 326 97T380 150T399 225V364Q399 404 370 429T291 455Q246 455
213 432T163 371L69 418Q84 458 118 488T197 536T294 553Q358 553 407 529T484 463T512 364V0H404V98L427 95Q408 62 379 38T312 1T228 -12ZM239 640L312 805H460L351 640H239Z" />
<glyph unicode="&#xe2;" horiz-adv-x="578" d="M228 -12Q173 -12 132 7T67 61T44 143Q44 187 63 222T124 281T227 315L415 346V257L249 228Q204 220 183 200T162 147Q162 116 185 97T246 77Q292 77 326 97T380 150T399 225V364Q399 404 370 429T291 455Q246 455
213 432T163 371L69 418Q84 458 118 488T197 536T294 553Q358 553 407 529T484 463T512 364V0H404V98L427 95Q408 62 379 38T312 1T228 -12ZM367 640L485 800H617L736 640H620L551 731L483 640H367Z" />
<glyph unicode="&#xe3;" horiz-adv-x="578" d="M228 -12Q173 -12 132 7T67 61T44 143Q44 187 63 222T124 281T227 315L415 346V257L249 228Q204 220 183 200T162 147Q162 116 185 97T246 77Q292 77 326 97T380 150T399 225V364Q399 404 370 429T291 455Q246 455
213 432T163 371L69 418Q84 458 118 488T197 536T294 553Q358 553 407 529T484 463T512 364V0H404V98L427 95Q408 62 379 38T312 1T228 -12ZM619 640Q592 640 575 649T545 669T520 689T490 698Q473 698 464 685T455 644H366Q366 718 399 753T481 789Q509 789 526
781T557 761T582 741T611 732Q630 732 638 746T647 785H735Q735 715 702 678T619 640Z" />
<glyph unicode="&#xe4;" horiz-adv-x="578" d="M228 -12Q173 -12 132 7T67 61T44 143Q44 187 63 222T124 281T227 315L415 346V257L249 228Q204 220 183 200T162 147Q162 116 185 97T246 77Q292 77 326 97T380 150T399 225V364Q399 404 370 429T291 455Q246 455
213 432T163 371L69 418Q84 458 118 488T197 536T294 553Q358 553 407 529T484 463T512 364V0H404V98L427 95Q408 62 379 38T312 1T228 -12ZM130 640V765H255V640H130ZM335 640V765H460V640H335Z" />
<glyph unicode="&#xe5;" horiz-adv-x="578" d="M228 -12Q173 -12 132 7T67 61T44 143Q44 187 63 222T124 281T227 315L415 346V257L249 228Q204 220 183 200T162 147Q162 116 185 97T246 77Q292 77 326 97T380 150T399 225V364Q399 404 370 429T291 455Q246 455
213 432T163 371L69 418Q84 458 118 488T197 536T294 553Q358 553 407 529T484 463T512 364V0H404V98L427 95Q408 62 379 38T312 1T228 -12ZM295 605Q245 605 210 637T175 722Q175 774 210 806T295 838Q345 838 380 806T415 722Q415 670 380 638T295 605ZM295 676Q315
676 327 688T340 722Q340 742 328 755T295 768Q276 768 263 756T250 722Q250 701 263 689T295 676Z" />
<glyph unicode="&#xe6;" horiz-adv-x="972" d="M228 -12Q173 -12 132 7T67 61T44 143Q44 187 63 222T124 281T227 315L399 343V364Q399 404 370 429T291 455Q246 455 213 432T163 371L69 418Q84 458 118 488T197 536T294 553Q365 553 417 523T494 443H456Q491
494 546 523T670 553Q731 553 779 532T860 475T910 391T928 291Q928 278 927 264T923 238H521Q524 193 545 159T602 107T680 88Q729 88 763 110T818 167L910 122Q894 84 861 54T784 6T689 -12Q623 -12 570 14T479 91L503 114V0H404V116L425 91Q405 59 376 36T310
1T228 -12ZM246 77Q292 77 326 97T380 150T399 225V254L249 228Q204 220 183 200T162 147Q162 116 185 97T246 77ZM523 328H808Q807 367 789 396T739 441T670 458Q634 458 603 443T551 398T523 328Z" />
<glyph unicode="&#xe7;" horiz-adv-x="606" d="M323 -12Q242 -12 180 25T81 127T44 272Q44 352 80 416T179 516T323 553Q378 553 426 534T509 480T562 401L463 355Q446 397 409 422T323 448Q277 448 241 426T183 363T162 271Q162 220 183 180T240 116T323 93Q372
93 408 118T463 187L562 140Q546 97 511 63T427 8T323 -12ZM334 -235Q306 -235 275 -226T223 -200L249 -132Q264 -144 282 -150T319 -157Q341 -157 353 -147T366 -120Q366 -100 343 -88T270 -71L292 10H362L351 -33Q404 -41 432 -66T461 -129Q461 -176 426 -205T334
-235Z" />
<glyph unicode="&#xe8;" horiz-adv-x="613" d="M320 -12Q239 -12 177 25T79 127T44 272Q44 354 79 417T175 516T311 553Q372 553 420 532T501 475T551 391T569 291Q569 278 568 264T564 238H133V328H500L446 287Q456 336 440 374T390 435T311 458Q266 458 231
436T177 372T162 271Q157 216 177 175T235 111T321 88Q370 88 404 110T459 167L551 122Q535 84 502 54T422 6T320 -12ZM252 640L143 805H291L364 640H252Z" />
<glyph unicode="&#xe9;" horiz-adv-x="613" d="M320 -12Q239 -12 177 25T79 127T44 272Q44 354 79 417T175 516T311 553Q372 553 420 532T501 475T551 391T569 291Q569 278 568 264T564 238H133V328H500L446 287Q456 336 440 374T390 435T311 458Q266 458 231
436T177 372T162 271Q157 216 177 175T235 111T321 88Q370 88 404 110T459 167L551 122Q535 84 502 54T422 6T320 -12ZM251 640L324 805H472L363 640H251Z" />
<glyph unicode="&#xea;" horiz-adv-x="613" d="M320 -12Q239 -12 177 25T79 127T44 272Q44 354 79 417T175 516T311 553Q372 553 420 532T501 475T551 391T569 291Q569 278 568 264T564 238H133V328H500L446 287Q456 336 440 374T390 435T311 458Q266 458 231
436T177 372T162 271Q157 216 177 175T235 111T321 88Q370 88 404 110T459 167L551 122Q535 84 502 54T422 6T320 -12ZM123 640L241 800H373L492 640H376L307 731L239 640H123Z" />
<glyph unicode="&#xeb;" horiz-adv-x="613" d="M320 -12Q239 -12 177 25T79 127T44 272Q44 354 79 417T175 516T311 553Q372 553 420 532T501 475T551 391T569 291Q569 278 568 264T564 238H133V328H500L446 287Q456 336 440 374T390 435T311 458Q266 458 231
436T177 372T162 271Q157 216 177 175T235 111T321 88Q370 88 404 110T459 167L551 122Q535 84 502 54T422 6T320 -12ZM142 640V765H267V640H142ZM347 640V765H472V640H347Z" />
<glyph unicode="&#xec;" horiz-adv-x="219" d="M53 0V541H166V0H53ZM54 640L-55 805H93L166 640H54Z" />
<glyph unicode="&#xed;" horiz-adv-x="219" d="M53 0V541H166V0H53ZM309 640L382 805H530L421 640H309Z" />
<glyph unicode="&#xee;" horiz-adv-x="219" d="M53 0V541H166V0H53ZM-75 640L43 800H175L294 640H178L109 731L41 640H-75Z" />
<glyph unicode="&#xef;" horiz-adv-x="219" d="M53 0V541H166V0H53ZM-56 640V765H69V640H-56ZM149 640V765H274V640H149Z" />
<glyph unicode="&#xf0;" horiz-adv-x="653" d="M330 -12Q271 -12 219 9T128 67T67 156T44 268Q44 346 80 408T180 507T322 543Q357 543 390 535T452 508T505 457L484 415Q483 466 468 509T427 586T364 645T285 683T196 696Q170 696 143 692T88 678L72 771Q145
796 213 796Q288 796 350 771T461 700T542 596T592 467T609 325Q609 210 572 136T472 25T330 -12ZM327 93Q375 93 412 116T470 178T492 268Q492 316 472 354T414 415T327 438Q279 438 242 416T183 355T162 267Q162 217 184 178T243 116T327 93ZM229 572V631L555
755V695L229 572Z" />
<glyph unicode="&#xf1;" horiz-adv-x="586" d="M66 0V541H174V435L161 449Q181 500 225 526T327 553Q387 553 433 527T505 455T531 349V0H419V319Q419 360 404 388T362 432T299 448Q264 448 237 433T194 388T179 319V0H66ZM618 640Q591 640 574 649T544 669T519
689T489 698Q472 698 463 685T454 644H365Q365 718 398 753T480 789Q508 789 525 781T556 761T581 741T610 732Q629 732 637 746T646 785H734Q734 715 701 678T618 640Z" />
<glyph unicode="&#xf2;" horiz-adv-x="653" d="M327 -12Q249 -12 185 25T82 126T44 271Q44 353 82 416T184 516T327 553Q407 553 470 517T571 417T609 271Q609 189 571 125T469 25T327 -12ZM327 93Q375 93 412 116T470 179T492 271Q492 322 471 362T412 425T327
448Q280 448 243 425T184 362T162 271Q162 220 183 180T242 116T327 93ZM272 640L163 805H311L384 640H272Z" />
<glyph unicode="&#xf3;" horiz-adv-x="653" d="M327 -12Q249 -12 185 25T82 126T44 271Q44 353 82 416T184 516T327 553Q407 553 470 517T571 417T609 271Q609 189 571 125T469 25T327 -12ZM327 93Q375 93 412 116T470 179T492 271Q492 322 471 362T412 425T327
448Q280 448 243 425T184 362T162 271Q162 220 183 180T242 116T327 93ZM271 640L344 805H492L383 640H271Z" />
<glyph unicode="&#xf4;" horiz-adv-x="653" d="M327 -12Q249 -12 185 25T82 126T44 271Q44 353 82 416T184 516T327 553Q407 553 470 517T571 417T609 271Q609 189 571 125T469 25T327 -12ZM327 93Q375 93 412 116T470 179T492 271Q492 322 471 362T412 425T327
448Q280 448 243 425T184 362T162 271Q162 220 183 180T242 116T327 93ZM143 640L261 800H393L512 640H396L327 731L259 640H143Z" />
<glyph unicode="&#xf5;" horiz-adv-x="653" d="M327 -12Q249 -12 185 25T82 126T44 271Q44 353 82 416T184 516T327 553Q407 553 470 517T571 417T609 271Q609 189 571 125T469 25T327 -12ZM327 93Q375 93 412 116T470 179T492 271Q492 322 471 362T412 425T327
448Q280 448 243 425T184 362T162 271Q162 220 183 180T242 116T327 93ZM396 640Q369 640 352 649T322 669T297 689T267 698Q250 698 241 685T232 644H143Q143 718 176 753T258 789Q286 789 303 781T334 761T359 741T388 732Q407 732 415 746T424 785H512Q512 715
479 678T396 640Z" />
<glyph unicode="&#xf6;" horiz-adv-x="653" d="M327 -12Q249 -12 185 25T82 126T44 271Q44 353 82 416T184 516T327 553Q407 553 470 517T571 417T609 271Q609 189 571 125T469 25T327 -12ZM327 93Q375 93 412 116T470 179T492 271Q492 322 471 362T412 425T327
448Q280 448 243 425T184 362T162 271Q162 220 183 180T242 116T327 93ZM162 640V765H287V640H162ZM367 640V765H492V640H367Z" />
<glyph unicode="&#xf7;" horiz-adv-x="642" d="M71 201V301H571V201H71ZM264 0V111H379V0H264ZM264 390V500H379V390H264Z" />
<glyph unicode="&#xf8;" horiz-adv-x="653" d="M25 0L494 541H629L160 0H25ZM327 -12Q249 -12 185 25T82 126T44 271Q44 353 82 416T184 516T327 553Q407 553 470 517T571 417T609 271Q609 189 571 125T469 25T327 -12ZM327 93Q375 93 412 116T470 179T492 271Q492
322 471 362T412 425T327 448Q280 448 243 425T184 362T162 271Q162 220 183 180T242 116T327 93Z" />
<glyph unicode="&#xf9;" horiz-adv-x="586" d="M259 -12Q198 -12 152 15T81 92T55 207V541H168V217Q168 180 183 152T225 109T287 93Q323 93 350 109T392 154T408 222V541H520V0H413V106L425 92Q406 42 362 15T259 -12ZM238 640L129 805H277L350 640H238Z" />
<glyph unicode="&#xfa;" horiz-adv-x="586" d="M259 -12Q198 -12 152 15T81 92T55 207V541H168V217Q168 180 183 152T225 109T287 93Q323 93 350 109T392 154T408 222V541H520V0H413V106L425 92Q406 42 362 15T259 -12ZM238 640L311 805H459L350 640H238Z" />
<glyph unicode="&#xfb;" horiz-adv-x="586" d="M259 -12Q198 -12 152 15T81 92T55 207V541H168V217Q168 180 183 152T225 109T287 93Q323 93 350 109T392 154T408 222V541H520V0H413V106L425 92Q406 42 362 15T259 -12ZM366 640L484 800H616L735 640H619L550 731L482
640H366Z" />
<glyph unicode="&#xfc;" horiz-adv-x="586" d="M259 -12Q198 -12 152 15T81 92T55 207V541H168V217Q168 180 183 152T225 109T287 93Q323 93 350 109T392 154T408 222V541H520V0H413V106L425 92Q406 42 362 15T259 -12ZM129 640V765H254V640H129ZM334 640V765H459V640H334Z"
/>
<glyph unicode="&#xfd;" horiz-adv-x="569" d="M114 -221Q94 -221 75 -218T39 -207V-110Q51 -113 68 -115T101 -118Q148 -118 170 -98T211 -34L247 48L245 -47L11 541H132L305 90H264L436 541H558L319 -59Q300 -107 272 -143T205 -200T114 -221ZM229 640L302 805H450L341
640H229Z" />
<glyph unicode="&#xfe;" horiz-adv-x="670" d="M66 -200V745H174V429L161 455Q191 501 241 527T355 553Q432 553 493 516T590 415T626 271Q626 191 591 127T494 26T355 -12Q292 -12 241 14T161 89L179 110V-200H66ZM344 93Q392 93 429 116T487 179T509 271Q509
322 488 362T429 425T344 448Q297 448 260 425T201 362T179 271Q179 220 200 180T259 116T344 93Z" />
<glyph unicode="&#xff;" horiz-adv-x="569" d="M114 -221Q94 -221 75 -218T39 -207V-110Q51 -113 68 -115T101 -118Q148 -118 170 -98T211 -34L247 48L245 -47L11 541H132L305 90H264L436 541H558L319 -59Q300 -107 272 -143T205 -200T114 -221ZM120 640V765H245V640H120ZM325
640V765H450V640H325Z" />
<glyph unicode="&#x2013;" horiz-adv-x="626" d="M83 221V321H543V221H83Z" />
<glyph unicode="&#x2014;" horiz-adv-x="956" d="M83 221V321H873V221H83Z" />
<glyph unicode="&#x2018;" horiz-adv-x="328" d="M95 490V575Q95 648 129 695T230 757V702Q198 694 180 673T158 620H210V490H95Z" />
<glyph unicode="&#x2019;" horiz-adv-x="328" d="M95 478V533Q128 541 146 562T168 615H115V745H230V660Q230 587 196 540T95 478Z" />
<glyph unicode="&#x201a;" horiz-adv-x="328" d="M95 -137V-82Q128 -74 146 -53T168 0H115V130H230V45Q230 -28 196 -75T95 -137Z" />
<glyph unicode="&#x201c;" horiz-adv-x="513" d="M280 490V575Q280 648 314 695T415 757V702Q383 694 365 673T343 620H395V490H280ZM95 490V575Q95 648 129 695T230 757V702Q198 694 180 673T158 620H210V490H95Z" />
<glyph unicode="&#x201d;" horiz-adv-x="513" d="M280 478V533Q313 541 331 562T353 615H300V745H415V660Q415 587 381 540T280 478ZM95 478V533Q128 541 146 562T168 615H115V745H230V660Q230 587 196 540T95 478Z" />
<glyph unicode="&#x201e;" horiz-adv-x="513" d="M95 -137V-82Q128 -74 146 -53T168 0H115V130H230V45Q230 -28 196 -75T95 -137ZM280 -137V-82Q313 -74 331 -53T353 0H300V130H415V45Q415 -28 381 -75T280 -137Z" />
<glyph unicode="&#x2022;" horiz-adv-x="617" d="M312 76Q256 76 212 101T142 171T116 272Q116 325 141 367T211 435T312 461Q366 461 408 436T475 367T501 272Q501 215 476 171T408 102T312 76Z" />
<glyph unicode="&#x2039;" horiz-adv-x="359" d="M193 74L40 269L193 464H319L167 269L319 74H193Z" />
<glyph unicode="&#x203a;" horiz-adv-x="359" d="M40 74L192 269L40 464H167L320 269L167 74H40Z" />
</font>
</defs>
</svg>
